# xmcd
#
# Track frame offsets:
#	150
#	18337
#	32608
#	55125
#	71490
#	87296
#	103048
#	119442
#	146894
#	172285
#	189093
# Disc length: 2854 seconds
# Revision: 2
# Processed by: cddbd v1.5.2PL0 Copyright (c) Steve Scherf et al.
#
# Submitted via: libkcddb 0.21
#
DISCID=960b240b
DTITLE=Various Artist - Young Guitar Slingers Texas Blues Evolution
DYEAR=2001
DGENRE=Bluesrock
TTITLE0=George Devore - Come On In My Kitchen
TTITLE1=Teddy Morgan - Secret Weapon
TTITLE2=Monte Montgomery - Soul Of A Man
TTITLE3=Guy Forsyth - God Moves On The Water
TTITLE4=CC Adcock - Castin' My Spell
TTITLE5=Jesse Dayton - Gimme Back My Wig
TTITLE6=Jonas Wilson - Kind Hearted Woman
TTITLE7=Tracy Conover - Help Me Through The Day
TTITLE8=Scrappy Jud Newcomb - Midnight Hour
TTITLE9=Carolyn Wonderland - Ain't Nobody's Business
TTITLE10=Matt Powell - Running Shoes
EXTD=Label :
EXTD=Antone's Records
EXTT0=George Devore
EXTT1=Teddy Morgan
EXTT2=Monte Montgomery
EXTT3=Guy Forsyth
EXTT4=C.C. Adock
EXTT5=Jesse Daython
EXTT6=Jonas Wilson
EXTT7=Tracy Conover
EXTT8=Scrappy Jud Newcomb
EXTT9=Carolyn Wonderland
EXTT10=Matt Powell
PLAYORDER=
